<?xml version="1.0" encoding="utf-8"?>
<!-- Generator: Adobe Illustrator 19.0.0, SVG Export Plug-In . SVG Version: 6.00 Build 0)  -->
<svg version="1.1" id="Layer_1" xmlns="http://www.w3.org/2000/svg" xmlns:xlink="http://www.w3.org/1999/xlink" x="0px" y="0px"
	 viewBox="0 0 209.362 428" style="enable-background:new 0 0 209.362 428;" xml:space="preserve">
<style type="text/css">
	.st0{fill:#D4ABEF;stroke:#D6D7D8;stroke-width:0.25;stroke-miterlimit:10;}
	.st1{fill:#7EE0C8;}
</style>
<path id="XMLID_6_" class="st0" d="M66.685,309.434l17.469-51.309c0,0-8.735-64.418-22.928-64.418l-18.561-32.755l-17.469-10.175
	c0,0-5.459-7.294,0-7.294s13.102-2.184,16.377,0c0,0,30.571,2.184,27.296,18.561c-3.275,16.377,2.184-31.663,2.184-31.663
	l-8.735-36.03l-8.856-48.04v-12.01c0,0-2.062-8.735,6.672-6.551s16.377,73.152,16.377,73.152S62.317,10.28,63.409,12.464
	c1.092,2.184,15.286-8.735,15.286,3.275s17.932,103.4,17.932,103.4S76.511,28.842,85.246,26.658
	c4.973-1.243,13.839,19.15,20.754,42.171c5.231,17.414,12.846,40.301,13.317,52.494c0,0-16.602-55.359-7.867-54.268
	c8.735,1.092,34.938,66.601,34.938,66.601l15.286,45.857c0,0,6.401,19.415,6.551,51.316c0.099,21.086,0.099,21.086-10.918,46.949
	l-2.184,72.061L66.685,309.434z"/>
<path id="XMLID_1_" class="st1" d="M0,426.635c0,0,56.775-84.763,67.693-128.436c0,0,123.376,39.306,125.56,80.795l-27.296,47.641H0
	z"/>
</svg>
