<?xml version="1.0" encoding="utf-8"?>
<!-- Generator: Adobe Illustrator 19.0.0, SVG Export Plug-In . SVG Version: 6.00 Build 0)  -->
<svg version="1.1" xmlns="http://www.w3.org/2000/svg" xmlns:xlink="http://www.w3.org/1999/xlink" x="0px" y="0px"
	 viewBox="0 0 226.333 159.667" style="enable-background:new 0 0 226.333 159.667;" xml:space="preserve">
<style type="text/css">
	.st0{display:none;}
	.st1{display:inline;}
	.st2{fill:#D4ABEF;stroke:#D6D7D8;stroke-width:0.25;stroke-miterlimit:10;}
	.st3{fill:#7EE0C8;}
	.st4{fill:#ABE1ED;stroke:#D6D7D8;stroke-width:0.25;stroke-miterlimit:10;}
	.st5{fill:#EDEDAB;stroke:#D6D7D8;stroke-width:0.25;stroke-miterlimit:10;}
</style>
<g id="Layer_1" class="st0">
	<g id="ZI6sKE.tif" class="st1">
		
			<image style="overflow:visible;" width="540" height="350" id="Layer_0_1_" xlink:href="52F57181CD7E305F.png"  transform="matrix(0.1781 0 0 0.1847 71.0649 23.3333)">
		</image>
	</g>
</g>
<g id="Layer_2">
	<path id="XMLID_6_" class="st2" d="M32.871,115.369l6.603-19.393c0,0-3.301-24.348-8.666-24.348l-7.015-12.38l-6.603-3.846
		c0,0-2.063-2.757,0-2.757s4.952-0.825,6.19,0c0,0,11.555,0.825,10.317,7.015c-1.238,6.19,0.825-11.968,0.825-11.968l-3.301-13.618
		l-3.347-18.158v-4.539c0,0-0.779-3.301,2.522-2.476s6.19,27.649,6.19,27.649S31.221,2.298,31.633,3.123
		c0.413,0.825,5.777-3.301,5.777,1.238s6.778,39.082,6.778,39.082s-7.603-34.13-4.302-34.955c1.88-0.47,5.231,7.238,7.845,15.939
		c1.977,6.582,4.856,15.232,5.033,19.841c0,0-6.275-20.924-2.974-20.511S62.997,48.93,62.997,48.93l5.777,17.332
		c0,0,2.419,7.338,2.476,19.396c0.037,7.97,0.037,7.97-4.127,17.745l-0.825,27.237L32.871,115.369z"/>
	<path id="XMLID_1_" class="st3" d="M7.667,159.667c0,0,21.459-32.038,25.586-48.545c0,0,46.632,14.856,47.458,30.538
		l-10.317,18.007H7.667z"/>
</g>
<g id="Layer_3">
	<path id="XMLID_4_" class="st4" d="M113.262,118.483c0,0-16.816-21.118-9.777-24.637c0,0-6.605-12.524-5.258-13.106
		c0,0-2.52-22.481,0-22.481s12.297-34.414,12.297-34.414s0.391-3.52,2.737-2.346c2.346,1.173-3.129,23.464-3.129,23.464
		s6.257-29.33,8.212-32.459s4.302,0,4.302,0l-5.084,30.503l7.43-35.978c0,0,5.475-2.346,5.475,1.955s-5.084,35.196-5.084,35.196
		l5.084-30.894c0,0,5.866-2.346,6.257,0.782s-1.955,43.408-1.955,43.408s13.296-12.123,16.816-6.257v3.129l-23.855,30.894v5.084
		l5.084,1.564C132.815,91.89,134.379,127.869,113.262,118.483z"/>
	<path id="XMLID_2_" class="st5" d="M100.41,96.066c0,0-7.43,10.168,0,13.687c0,0,7.039,6.648,9.777,3.911
		c0,0,24.246,3.911,21.509-28.548c0,0,53.576,39.764,58.66,35.72c0,0,33.241,7.297,34.414,4.169
		c1.173-3.129,1.564,34.662,1.564,34.662h-47.71l-57.878-33.489l-20.335-14.469C100.41,111.709,93.37,103.496,100.41,96.066z"/>
</g>
</svg>
