<?xml version="1.0" encoding="utf-8"?>
<!-- Generator: Adobe Illustrator 19.0.0, SVG Export Plug-In . SVG Version: 6.00 Build 0)  -->
<svg version="1.1" id="Layer_1" xmlns="http://www.w3.org/2000/svg" xmlns:xlink="http://www.w3.org/1999/xlink" x="0px" y="0px"
	 viewBox="0 0 400.48 473.976" style="enable-background:new 0 0 400.48 473.976;" xml:space="preserve">
<style type="text/css">
	.st0{fill:#ABE1ED;stroke:#D6D7D8;stroke-width:0.25;stroke-miterlimit:10;}
	.st1{fill:#EDEDAB;stroke:#D6D7D8;stroke-width:0.25;stroke-miterlimit:10;}
</style>
<path id="XMLID_4_" class="st0" d="M62.803,350.868c0,0-50.267-63.126-29.225-73.647c0,0-19.743-37.438-15.716-39.177
	c0,0-7.534-67.202,0-67.202S54.62,67.971,54.62,67.971s1.169-10.521,8.183-7.014s-9.352,70.14-9.352,70.14S72.155,43.422,78,34.07
	s12.859,0,12.859,0l-15.197,91.182L97.873,17.704c0,0,16.366-7.014,16.366,5.845s-15.197,105.21-15.197,105.21l15.197-92.351
	c0,0,17.535-7.014,18.704,2.338c1.169,9.352-5.845,129.759-5.845,129.759s39.746-36.239,50.267-18.704v9.352l-71.309,92.351V266.7
	l15.197,4.676C121.252,271.376,125.928,378.924,62.803,350.868z"/>
<path id="XMLID_2_" class="st1" d="M24.385,283.858c0,0-22.211,30.394,0,40.915c0,0,21.042,19.873,29.225,11.69
	c0,0,72.478,11.69,64.295-85.337c0,0,160.152,118.863,175.349,106.776c0,0,99.365,21.813,102.872,12.462
	c3.507-9.352,4.676,103.613,4.676,103.613H258.184L85.172,373.871l-60.788-43.253C24.385,330.618,3.343,306.069,24.385,283.858z"/>
</svg>
